<?xml version="1.0" encoding="UTF-8"?>
<svg id="Layer_1" data-name="Layer 1" xmlns="http://www.w3.org/2000/svg" viewBox="0 0 626.55 626.55">
  <defs>
    <style>
      .cls-1 {
        fill: #efe7e0;
      }

      .cls-1, .cls-2 {
        stroke-width: 0px;
      }

      .cls-2 {
        fill: #231f20;
      }
    </style>
  </defs>
  <g>
    <rect class="cls-1" width="626.55" height="626.55" rx="95" ry="95"/>
    <path class="cls-2" d="M536.26,466.2v49.86c0,9.43-7.65,17.08-17.08,17.08h-49.86c-1.95,0-3.77-.57-5.31-1.56l-.26.26-175.94-175.95c-2.82-2.82-7.39-2.82-10.2,0l-7.2,7.2c-23.52,23.53-61.66,23.53-85.19,0l-77.29-77.29c-23.53-23.52-23.53-61.66,0-85.19l99.16-99.16c23.52-23.53,61.66-23.53,85.19,0l77.29,77.29c23.53,23.52,23.53,61.66,0,85.19l-10.55,10.56c-2.82,2.82-2.82,7.39,0,10.2l64.51,64.51c1.35,1.35,2.11,3.19,2.11,5.1v26.28c0,7.84,6.35,14.19,14.19,14.19h26.28c1.91,0,3.75.76,5.1,2.11h0c1.35,1.35,2.11,3.19,2.11,5.1v24.31c0,6.39,5.18,11.57,11.57,11.57h24.31c1.91,0,3.75.76,5.1,2.11l20.66,20.66-.26.26c.99,1.53,1.56,3.35,1.56,5.31Z"/>
  </g>
  <rect class="cls-1" x="186.9" y="200.11" width="104.31" height="67.47" rx="23.46" ry="23.46" transform="translate(-95.33 237.53) rotate(-45)"/>
</svg>